<?xml version="1.0" standalone="no"?>
<!DOCTYPE svg PUBLIC "-//W3C//DTD SVG 20010904//EN"
 "http://www.w3.org/TR/2001/REC-SVG-20010904/DTD/svg10.dtd">
<svg version="1.0" xmlns="http://www.w3.org/2000/svg"
 width="2048.000000pt" height="2048.000000pt" viewBox="0 0 2048.000000 2048.000000"
 preserveAspectRatio="xMidYMid meet">

<g transform="translate(0.000000,2048.000000) scale(0.100000,-0.100000)"
fill="#000000" stroke="none">
<path d="M756 14048 c-5 -3572 -4 -4251 7 -4293 33 -120 52 -142 421 -511
4800 -4793 5221 -5211 5283 -5241 131 -65 260 -65 393 -2 60 28 154 120 1342
1312 702 705 1275 1283 1274 1284 -2 2 -311 -94 -687 -213 -454 -144 -704
-218 -744 -221 -72 -6 -170 16 -235 54 -69 40 -4096 4055 -4139 4127 -18 31
-45 87 -60 124 l-26 67 -3 1635 -2 1635 3307 -3307 3308 -3308 3278 3277 3277
3278 0 -1561 c0 -1522 0 -1563 -20 -1638 -37 -146 -61 -179 -304 -420 -122
-120 -1997 -1961 -4169 -4090 -2171 -2129 -3946 -3873 -3945 -3877 2 -4 388
-393 858 -866 682 -685 865 -864 905 -884 41 -20 65 -24 135 -24 134 0 147 9
414 274 127 125 2173 2137 4546 4470 2373 2334 4334 4263 4357 4288 22 25 53
68 68 95 59 108 55 -217 55 4466 l0 4312 -9443 0 -9444 0 -7 -4242z m11739
-638 c-1237 -1237 -2253 -2250 -2257 -2250 -7 0 -3793 3725 -4363 4291 l-210
209 4540 0 4540 0 -2250 -2250z"/>
<path d="M10052 15429 c-373 -43 -713 -209 -982 -479 -147 -147 -237 -270
-319 -435 -200 -406 -231 -846 -89 -1275 163 -496 561 -891 1059 -1054 353
-115 696 -114 1053 5 538 178 947 620 1086 1172 86 341 62 693 -68 1027 -134
340 -398 643 -730 834 -286 164 -676 244 -1010 205z"/>
</g>
</svg>
